<?xml version="1.0" encoding="UTF-8"?>
<!DOCTYPE svg PUBLIC "-//W3C//DTD SVG 1.1//EN" "http://www.w3.org/Graphics/SVG/1.1/DTD/svg11.dtd">
<svg xmlns="http://www.w3.org/2000/svg" version="1.1" width="1031px" height="1066px" style="shape-rendering:geometricPrecision; text-rendering:geometricPrecision; image-rendering:optimizeQuality; fill-rule:evenodd; clip-rule:evenodd" xmlns:xlink="http://www.w3.org/1999/xlink">
<g><path style="opacity:0.308" fill="#fefffe" d="M 483.5,33.5 C 641.925,27.2225 775.425,81.2225 884,195.5C 986.559,312.298 1028.23,448.298 1009,603.5C 982.614,761.228 901.447,881.394 765.5,964C 649.401,1028.87 526.401,1046.54 396.5,1017C 244.954,976.672 134.121,886.506 64,746.5C 14.2528,638.026 3.25275,525.693 31,409.5C 71.8285,260.688 160.995,151.521 298.5,82C 357.191,54.0785 418.857,37.9118 483.5,33.5 Z M 490.5,59.5 C 640.601,55.5016 766.434,108.168 868,217.5C 962.189,327.175 1000.52,454.175 983,598.5C 957.935,749.108 880.435,863.608 750.5,942C 622.896,1011.89 490.23,1023.23 352.5,976C 217.333,923.5 123.5,829.667 71,694.5C 23.7738,556.77 35.1071,424.104 105,296.5C 182.048,168.493 294.548,91.3262 442.5,65C 458.598,62.6923 474.598,60.859 490.5,59.5 Z"/></g>
</svg>
